<svg xmlns="http://www.w3.org/2000/svg" fill="none" viewBox="-0.75 -0.75 24 24" height="24" width="24"><g id="receipt-cross--shop-shopping-pay-payment-store-cash-bill-receipt-cross-cancel-delete"><path id="Subtract" fill="#8fbffa00" d="M16.239375 1.513125c0.13734375 0.009375 1.14046875 0.13874999999999998 2.8856249999999997 1.8839062500000001 1.77796875 1.77796875 1.8768749999999998 2.7459374999999997 1.8825 2.848125l0 0.0075 0 0.00140625c0.0515625 1.28203125 0.08625 2.92359375 0.08625 5.01796875 0 4.6471875 -0.1715625 7.580625 -0.3121875 9.204374999999999 -0.06234375 0.7214062499999999 -0.87984375 1.0406250000000001 -1.43625 0.5765625l-1.6968750000000001 -1.41375 -1.3753125000000002 1.3753125000000002a0.9375 0.9375 0 0 1 -1.24875 0.06890625L13.21875 19.639218749999998l-1.3059375 1.3054687500000002a0.9375 0.9375 0 0 1 -1.3256249999999998 0L9.28125 19.639218749999998l-1.805625 1.4442187499999999a0.9375 0.9375 0 0 1 -1.24875 -0.06890625l-1.3753125000000002 -1.3753125000000002 -1.6968750000000001 1.4142187499999999c-0.55640625 0.46359374999999997 -1.37390625 0.144375 -1.43671875 -0.57703125C1.57734375 18.85265625 1.40625 15.918750000000001 1.40625 11.27203125c0 -4.28625 0.14578125 -6.676875 0.27890624999999997 -7.965468749999999 0.09046875 -0.88078125 0.7185937499999999 -1.50890625 1.599375 -1.59984375 1.2890625 -0.13265624999999998 3.6796875 -0.2784375 7.965468749999999 -0.2784375 2.0789062499999997 0 3.71203125 0.03421875 4.989375 0.08437499999999999Z" stroke-width="1.5"></path><path id="Intersect" fill="#ffffff00" d="M19.08609375 6.5625c0.8990625 0 1.54828125 -0.04546875 2.00765625 -0.1021875 0 0 -0.46875 -1.5065625 -2.00765625 -3.04546875C17.547656250000003 1.8759374999999998 15.992343749999998 1.40625 15.992343749999998 1.40625 15.962812500000002 1.8417187499999998 15.9375 2.48484375 15.9375 3.41484375c0 0.65578125 0.012656249999999999 1.1690625000000001 0.030468750000000003 1.5670312499999999 0.035625 0.80859375 0.56015625 1.42734375 1.36546875 1.5065625 0.43593750000000003 0.04265625 1.00875 0.0740625 1.753125 0.0740625Z" stroke-width="1.5"></path><path id="Union" fill="#ffffff00" d="M7.75359375 15.3046875c-0.406875 -0.46359374999999997 -0.2953125 -1.0982812499999999 0.12703125 -1.54828125 0.32578124999999997 -0.346875 0.7940625 -0.8357812499999999 1.4521875 -1.5046875a90.48468749999999 90.48468749999999 0 0 1 -1.4521875 -1.5046875c-0.421875 -0.44999999999999996 -0.53390625 -1.08515625 -0.12656250000000002 -1.54828125a5.53359375 5.53359375 0 0 1 0.5071875 -0.50765625c0.463125 -0.406875 1.0982812499999999 -0.2953125 1.5478125 0.12703125 0.346875 0.32578124999999997 0.83625 0.7940625 1.5046875 1.4521875a90.52312500000001 90.52312500000001 0 0 1 1.50515625 -1.4521875c0.44999999999999996 -0.421875 1.0846875 -0.53390625 1.54828125 -0.12656250000000002a5.5565625 5.5565625 0 0 1 0.5071875 0.5071875c0.406875 0.463125 0.2953125 1.0982812499999999 -0.12703125 1.5478125a89.55 89.55 0 0 1 -1.4521875 1.5046875 90.29718749999999 90.29718749999999 0 0 1 1.4521875 1.50515625c0.421875 0.44999999999999996 0.5343749999999999 1.0846875 0.12703125 1.54828125a5.5565625 5.5565625 0 0 1 -0.5071875 0.5071875c-0.46359374999999997 0.406875 -1.0982812499999999 0.2953125 -1.54828125 -0.12656250000000002 -0.346875 -0.32625 -0.8357812499999999 -0.79453125 -1.5046875 -1.45265625a90.52312500000001 90.52312500000001 0 0 1 -1.5046875 1.4521875c-0.44999999999999996 0.421875 -1.08515625 0.5343749999999999 -1.54828125 0.12703125a5.5565625 5.5565625 0 0 1 -0.50765625 -0.5071875Z" stroke-width="1.5"></path><path id="Union_2" stroke="#ffffff" stroke-linecap="round" stroke-linejoin="round" d="M7.75359375 15.3046875c-0.406875 -0.46359374999999997 -0.2953125 -1.0982812499999999 0.12703125 -1.54828125 0.32578124999999997 -0.346875 0.7940625 -0.8357812499999999 1.4521875 -1.5046875a90.48468749999999 90.48468749999999 0 0 1 -1.4521875 -1.5046875c-0.421875 -0.44999999999999996 -0.53390625 -1.08515625 -0.12656250000000002 -1.54828125a5.53359375 5.53359375 0 0 1 0.5071875 -0.50765625c0.463125 -0.406875 1.0982812499999999 -0.2953125 1.5478125 0.12703125 0.346875 0.32578124999999997 0.83625 0.7940625 1.5046875 1.4521875a90.52312500000001 90.52312500000001 0 0 1 1.50515625 -1.4521875c0.44999999999999996 -0.421875 1.0846875 -0.53390625 1.54828125 -0.12656250000000002a5.5565625 5.5565625 0 0 1 0.5071875 0.5071875c0.406875 0.463125 0.2953125 1.0982812499999999 -0.12703125 1.5478125a89.55 89.55 0 0 1 -1.4521875 1.5046875 90.29718749999999 90.29718749999999 0 0 1 1.4521875 1.50515625c0.421875 0.44999999999999996 0.5343749999999999 1.0846875 0.12703125 1.54828125a5.5565625 5.5565625 0 0 1 -0.5071875 0.5071875c-0.46359374999999997 0.406875 -1.0982812499999999 0.2953125 -1.54828125 -0.12656250000000002 -0.346875 -0.32625 -0.8357812499999999 -0.79453125 -1.5046875 -1.45265625a90.52312500000001 90.52312500000001 0 0 1 -1.5046875 1.4521875c-0.44999999999999996 0.421875 -1.08515625 0.5343749999999999 -1.54828125 0.12703125a5.5565625 5.5565625 0 0 1 -0.50765625 -0.5071875Z" stroke-width="1.5"></path><path id="Subtract_2" stroke="#ffffff" stroke-linecap="round" stroke-linejoin="round" d="M16.239375 1.5121875c0.13734375 0.009375 1.14046875 0.13874999999999998 2.8856249999999997 1.8839062500000001 1.77796875 1.77796875 1.8768749999999998 2.7459374999999997 1.8825 2.848125l0 0.0075 0 0.00140625c0.0515625 1.28203125 0.08625 2.92359375 0.08625 5.01796875 0 4.6471875 -0.1715625 7.580625 -0.3121875 9.204374999999999 -0.06234375 0.7214062499999999 -0.87984375 1.0406250000000001 -1.43625 0.5765625l-1.6968750000000001 -1.41375 -1.3753125000000002 1.3753125000000002a0.9375 0.9375 0 0 1 -1.24875 0.06890625L13.21875 19.638281250000002l-1.3059375 1.3054687500000002a0.9375 0.9375 0 0 1 -1.3256249999999998 0L9.28125 19.638281250000002l-1.805625 1.4442187499999999a0.9375 0.9375 0 0 1 -1.24875 -0.06890625l-1.3753125000000002 -1.3753125000000002 -1.6968750000000001 1.4142187499999999c-0.55640625 0.46359374999999997 -1.37390625 0.144375 -1.43671875 -0.57703125C1.57734375 18.85171875 1.40625 15.918281250000001 1.40625 11.27109375 1.40625 6.984375 1.55203125 4.59375 1.6851562500000001 3.305625c0.09046875 -0.88078125 0.7185937499999999 -1.50890625 1.599375 -1.59984375 1.2890625 -0.13265624999999998 3.6796875 -0.2784375 7.965468749999999 -0.2784375 2.0789062499999997 0 3.71203125 0.03421875 4.989375 0.08437499999999999Z" stroke-width="1.5"></path><path id="Intersect_2" stroke="#ffffff" stroke-linecap="round" stroke-linejoin="round" d="M15.984375 1.5234375c-0.02578125 0.43125 -0.046875 1.0415625 -0.046875 1.8918749999999998 0 0.6553125 0.012656249999999999 1.1685937499999999 0.030468750000000003 1.5670312499999999 0.035625 0.808125 0.56015625 1.42734375 1.36546875 1.50609375 0.43593750000000003 0.043125 1.00875 0.0740625 1.753125 0.0740625 0.8235937499999999 0 1.43765625 -0.0384375 1.8881249999999998 -0.088125" stroke-width="1.5"></path></g></svg>