<svg xmlns="http://www.w3.org/2000/svg" fill="none" viewBox="-0.75 -0.75 24 24" height="24" width="24"><g id="download-box-2--arrow-button-down-download-internet-network-server-upload"><path id="Rectangle 1097" fill="#ffffff00" d="M20.443593749999998 18.9140625c-0.11624999999999999 1.09078125 -0.9820312500000001 1.86984375 -2.075625 1.9528125000000003C16.940625 20.9765625 14.616562499999999 21.09375 11.25 21.09375s-5.690625000000001 -0.11765625 -7.11796875 -0.22640625c-1.0935937500000001 -0.0834375 -1.9593749999999999 -0.8625 -2.075625 -1.9528125000000003C1.9593749999999999 18.0065625 1.875 16.7221875 1.875 15c0 -1.7221875 0.08437499999999999 -3.0065625 0.18140625 -3.9140625 0.11624999999999999 -1.09078125 0.9820312500000001 -1.86984375 2.075625 -1.9528125000000003C5.559374999999999 9.0234375 7.8834375 8.90625 11.25 8.90625s5.690625000000001 0.11765625 7.11796875 0.22640625c1.0935937500000001 0.0834375 1.9593749999999999 0.8625 2.075625 1.9528125000000003C20.540625 11.993437499999999 20.625 13.2778125 20.625 15c0 1.7221875 -0.08437499999999999 3.0065625 -0.18140625 3.9140625Z" stroke-width="1.5"></path><path id="Union" fill="#8fbffa00" d="m13.111875000000001 11.737031250000001 -0.1940625 -7.2290625c-0.01640625 -0.60515625 -0.42140625 -1.134375 -1.0237500000000002 -1.194375a6.49828125 6.49828125 0 0 0 -1.28765625 0c-0.6028125 0.06046875 -1.0078125 0.5892187499999999 -1.02421875 1.19484375l-0.1940625 7.22859375a50.615625 50.615625 0 0 0 -1.4639062500000002 0.05015625c-0.92625 0.04640625 -1.30640625 0.9234375 -0.691875 1.61765625 0.31593750000000004 0.35625 0.71203125 0.78375 1.2046875 1.2862500000000001 0.9271874999999999 0.94453125 1.6246875 1.48875 2.0934375000000003 1.79765625a1.2825000000000002 1.2825000000000002 0 0 0 1.4390625 0c0.46875 -0.30890625 1.16625 -0.853125 2.09296875 -1.79765625a34.62046875 34.62046875 0 0 0 1.2046875 -1.2857812499999999c0.61453125 -0.6946875 0.234375 -1.57171875 -0.69234375 -1.618125 -0.40171875 -0.020156249999999997 -0.88453125 -0.0375 -1.46296875 -0.05015625Z" stroke-width="1.5"></path><path id="Rectangle 1096" stroke="#ffffff" stroke-linecap="round" stroke-linejoin="round" d="M15.46875 8.9765625a72.515625 72.515625 0 0 1 2.8978125 0.15609375c1.0935937500000001 0.0834375 1.9603125000000001 0.8625 2.07703125 1.9528125000000003 0.09703125 0.90796875 0.18140625 2.19234375 0.18140625 3.9140625 0 1.72265625 -0.08437499999999999 3.00703125 -0.18140625 3.915 -0.11624999999999999 1.0903125 -0.9820312500000001 1.869375 -2.075625 1.95234375C16.940625 20.975624999999997 14.616562499999999 21.09375 11.25 21.09375s-5.690625000000001 -0.11812500000000001 -7.11796875 -0.226875c-1.0935937500000001 -0.08296875 -1.9593749999999999 -0.86203125 -2.075625 -1.95234375C1.9593749999999999 18.0065625 1.875 16.7221875 1.875 15c0 -1.7221875 0.08437499999999999 -3.0065625 0.18140625 -3.9140625 0.11624999999999999 -1.09078125 0.9834375 -1.8703125 2.0765624999999996 -1.9532812499999999A72.5203125 72.5203125 0 0 1 7.03125 8.9765625" stroke-width="1.5"></path><path id="Union_2" stroke="#ffffff" stroke-linecap="round" stroke-linejoin="round" d="m13.111875000000001 11.737031250000001 -0.1940625 -7.2290625c-0.01640625 -0.60515625 -0.42140625 -1.134375 -1.0237500000000002 -1.194375a6.49828125 6.49828125 0 0 0 -1.28765625 0c-0.6028125 0.06046875 -1.0078125 0.5892187499999999 -1.02421875 1.19484375l-0.1940625 7.22859375a50.615625 50.615625 0 0 0 -1.4639062500000002 0.05015625c-0.92625 0.04640625 -1.30640625 0.9234375 -0.691875 1.61765625 0.31593750000000004 0.35625 0.71203125 0.78375 1.2046875 1.2862500000000001 0.9271874999999999 0.94453125 1.6246875 1.48875 2.0934375000000003 1.79765625a1.2825000000000002 1.2825000000000002 0 0 0 1.4390625 0c0.46875 -0.30890625 1.16625 -0.853125 2.09296875 -1.79765625a34.62046875 34.62046875 0 0 0 1.2046875 -1.2857812499999999c0.61453125 -0.6946875 0.234375 -1.57171875 -0.69234375 -1.618125 -0.40171875 -0.020156249999999997 -0.88453125 -0.0375 -1.46296875 -0.05015625Z" stroke-width="1.5"></path></g></svg>