<svg xmlns="http://www.w3.org/2000/svg" fill="none" viewBox="-1.5 -1.5 48 48" height="48" width="48"><g id="browser-code-1--code-browser-line-shell-command-terminal"><path id="Rectangle 1097" fill="#ffffff00" d="M3.3178125 37.2590625c0.19499999999999998 2.3953125 2.0278125 4.2281249999999995 4.423125 4.423125C10.767187499999999 41.9278125 15.59625 42.1875 22.5 42.1875c6.90375 0 11.732812500000001 -0.2596875 14.7590625 -0.5053125 2.3953125 -0.19499999999999998 4.2281249999999995 -2.0278125 4.423125 -4.423125C41.9278125 34.2328125 42.1875 29.403750000000002 42.1875 22.5c0 -6.90375 -0.2596875 -11.732812500000001 -0.5053125 -14.7590625 -0.19499999999999998 -2.3953125 -2.0278125 -4.2281249999999995 -4.423125 -4.423125C34.2328125 3.0721875 29.403750000000002 2.8125 22.5 2.8125c-6.90375 0 -11.732812500000001 0.2596875 -14.7590625 0.5053125 -2.3953125 0.19499999999999998 -4.2281249999999995 2.0278125 -4.423125 4.423125C3.0721875 10.767187499999999 2.8125 15.59625 2.8125 22.5c0 6.90375 0.2596875 11.732812500000001 0.5053125 14.7590625Z" stroke-width="3"></path><path id="Intersect" fill="#7f39fb" d="M41.985 12.65625H3.0159375c0.0890625 -1.9846875 0.196875 -3.6159375000000002 0.301875 -4.915312500000001 0.19499999999999998 -2.3953125 2.0278125 -4.2281249999999995 4.424062500000001 -4.423125C10.768125000000001 3.0721875 15.5971875 2.8125 22.5 2.8125c6.90375 0 11.732812500000001 0.2596875 14.7590625 0.5053125 2.39625 0.19499999999999998 4.2281249999999995 2.0278125 4.424062500000001 4.423125 0.105 1.299375 0.21281250000000002 2.930625 0.301875 4.915312500000001Z" stroke-width="3"></path><path id="Vector 1456" stroke="#ffffff" stroke-linecap="round" stroke-linejoin="round" d="M11.25 21.5625s7.5 3.75 7.5 5.625 -7.5 5.625 -7.5 5.625" stroke-width="3"></path><path id="Vector 1462" stroke="#ffffff" stroke-linecap="round" stroke-linejoin="round" d="M24.375 31.875h9.375" stroke-width="3"></path><path id="Rectangle 1096" stroke="#ffffff" stroke-linejoin="round" d="M3.3178125 37.2590625c0.19499999999999998 2.3953125 2.0278125 4.2281249999999995 4.423125 4.423125C10.767187499999999 41.9278125 15.59625 42.1875 22.5 42.1875c6.90375 0 11.732812500000001 -0.2596875 14.7590625 -0.5053125 2.3953125 -0.19499999999999998 4.2281249999999995 -2.0278125 4.423125 -4.423125C41.9278125 34.2328125 42.1875 29.403750000000002 42.1875 22.5c0 -6.90375 -0.2596875 -11.732812500000001 -0.5053125 -14.7590625 -0.19499999999999998 -2.3953125 -2.0278125 -4.2281249999999995 -4.423125 -4.423125C34.2328125 3.0721875 29.403750000000002 2.8125 22.5 2.8125c-6.90375 0 -11.732812500000001 0.2596875 -14.7590625 0.5053125 -2.3953125 0.19499999999999998 -4.2281249999999995 2.0278125 -4.423125 4.423125C3.0721875 10.767187499999999 2.8125 15.59625 2.8125 22.5c0 6.90375 0.2596875 11.732812500000001 0.5053125 14.7590625Z" stroke-width="3"></path><path id="Vector 146" stroke="#ffffff" stroke-linecap="round" stroke-linejoin="round" d="m3.28125 12.65625 38.4375 0" stroke-width="3"></path><path id="Vector 1501" stroke="#ffffff" stroke-linecap="round" stroke-linejoin="round" d="M9.375 7.96875h1.875" stroke-width="3"></path><path id="Vector 1502" stroke="#ffffff" stroke-linecap="round" stroke-linejoin="round" d="M16.875 7.96875h1.875" stroke-width="3"></path></g></svg>