<svg xmlns="http://www.w3.org/2000/svg" fill="none" viewBox="-0.75 -0.75 24 24" height="24" width="24"><g id="floppy-disk--disk-floppy-electronics-device-disc-computer-storage"><path id="Subtract" fill="#8fbffa00" d="M17.229375 2.0376562500000004a2.6053125 2.6053125 0 0 0 -1.5159375 -0.549375A113.22 113.22 0 0 0 11.25 1.40625c-3.451875 0 -5.866406250000001 0.12984375 -7.37953125 0.25265625 -1.19765625 0.09749999999999999 -2.1140624999999997 1.01390625 -2.2115625 2.2115625C1.53609375 5.383593749999999 1.40625 7.798125 1.40625 11.25c0 3.451875 0.12984375 5.866406250000001 0.25265625 7.37953125 0.09749999999999999 1.19765625 1.01390625 2.1140624999999997 2.2115625 2.2115625C5.383593749999999 20.96390625 7.798125 21.09375 11.25 21.09375c3.451875 0 5.866406250000001 -0.12984375 7.37953125 -0.25265625 1.19765625 -0.09749999999999999 2.1140624999999997 -1.01390625 2.2115625 -2.2115625C20.96390625 17.11640625 21.09375 14.701875000000001 21.09375 11.25c0 -1.74796875 -0.03328125 -3.2296875 -0.08203125 -4.4634375a2.6053125 2.6053125 0 0 0 -0.54984375 -1.51640625c-0.403125 -0.5109375 -0.931875 -1.13765625 -1.51359375 -1.7189062499999999 -0.58125 -0.58125 -1.2084374999999998 -1.1099999999999999 -1.7189062499999999 -1.51359375Z" stroke-width="1.5"></path><path id="Intersect" fill="#ffffff00" d="M17.04421875 20.948437499999997c0.05953125 -0.94359375 0.11109374999999999 -2.2734375 0.11109374999999999 -4.0378125 0 -2.0953125 -0.073125 -3.5789062499999997 -0.1453125 -4.5290625 -0.06 -0.79875 -0.66796875 -1.41234375 -1.46625 -1.4765625 -0.9140625 -0.073125 -2.32171875 -0.14671875 -4.2946875 -0.14671875 -1.9725000000000001 0 -3.3806249999999998 0.07359375 -4.29421875 0.1471875 -0.79875 0.06375 -1.40625 0.67734375 -1.46671875 1.4765625 -0.07171875 0.9496874999999999 -0.1453125 2.43328125 -0.1453125 4.52859375 0 1.76390625 0.05203125 3.09421875 0.1115625 4.0378125 1.449375 0.08109374999999999 3.3656249999999996 0.1453125 5.79609375 0.1453125 2.4290625 0 4.344375 -0.06421875 5.793749999999999 -0.1453125Z" stroke-width="1.5"></path><path id="Intersect_2" fill="#ffffff00" d="M13.20796875 5.30625c0.79453125 -0.0328125 1.4151562500000001 -0.6164062499999999 1.4564062500000001 -1.41 0.0178125 -0.3459375 0.03 -0.7640625 0.03 -1.25953125 0 -0.4603125 -0.010312499999999999 -0.8535937499999999 -0.02625 -1.1840625A119.9146875 119.9146875 0 0 0 11.25 1.40625c-1.2801562499999999 0 -2.4178125 0.0178125 -3.41953125 0.046875a24.69140625 24.69140625 0 0 0 -0.02671875 1.18359375c0 0.49593750000000003 0.012656249999999999 0.9140625 0.030468750000000003 1.25953125 0.041249999999999995 0.79359375 0.661875 1.3771875 1.4564062500000001 1.41046875a47.484375 47.484375 0 0 0 1.9584375 0.03703125c0.81234375 0 1.460625 -0.01640625 1.9593749999999999 -0.0375Z" stroke-width="1.5"></path><path id="Subtract_2" stroke="#ffffff" stroke-linecap="round" stroke-linejoin="round" d="M17.229375 2.0376562500000004a2.6053125 2.6053125 0 0 0 -1.5159375 -0.549375A113.22 113.22 0 0 0 11.25 1.40625c-3.451875 0 -5.866406250000001 0.12984375 -7.37953125 0.25265625 -1.19765625 0.09749999999999999 -2.1140624999999997 1.01390625 -2.2115625 2.2115625C1.53609375 5.383593749999999 1.40625 7.798125 1.40625 11.25c0 3.451875 0.12984375 5.866406250000001 0.25265625 7.37953125 0.09749999999999999 1.19765625 1.01390625 2.1140624999999997 2.2115625 2.2115625C5.383593749999999 20.96390625 7.798125 21.09375 11.25 21.09375c3.451875 0 5.866406250000001 -0.12984375 7.37953125 -0.25265625 1.19765625 -0.09749999999999999 2.1140624999999997 -1.01390625 2.2115625 -2.2115625C20.96390625 17.11640625 21.09375 14.701875000000001 21.09375 11.25c0 -1.74796875 -0.03328125 -3.2296875 -0.08203125 -4.4634375a2.6053125 2.6053125 0 0 0 -0.54984375 -1.51640625c-0.403125 -0.5109375 -0.931875 -1.13765625 -1.51359375 -1.7189062499999999 -0.58125 -0.58125 -1.2084374999999998 -1.1099999999999999 -1.7189062499999999 -1.51359375Z" stroke-width="1.5"></path><path id="Intersect_3" stroke="#ffffff" stroke-linecap="round" stroke-linejoin="round" d="M14.66859375 1.453125c0.0159375 0.33046875 0.02625 0.72375 0.02625 1.1840625a24.28125 24.28125 0 0 1 -0.03 1.25953125c-0.041249999999999995 0.7940625 -0.661875 1.3771875 -1.4564062500000001 1.4109375 -0.49828124999999995 0.020624999999999998 -1.1465625000000002 0.0365625 -1.95890625 0.0365625 -0.811875 0 -1.46015625 -0.0159375 -1.9584375 -0.03703125 -0.79453125 -0.0328125 -1.4151562500000001 -0.6164062499999999 -1.4564062500000001 -1.41046875a24.28125 24.28125 0 0 1 -0.030468750000000003 -1.25953125c0 -0.4603125 0.01078125 -0.8535937499999999 0.02671875 -1.1840625" stroke-width="1.5"></path><path id="Intersect_4" stroke="#ffffff" stroke-linecap="round" stroke-linejoin="round" d="M17.044687500000002 20.948437499999997c0.059062500000000004 -0.94359375 0.11109374999999999 -2.27390625 0.11109374999999999 -4.03828125 0 -2.0953125 -0.073125 -3.5789062499999997 -0.1453125 -4.5290625 -0.06 -0.79875 -0.66796875 -1.41234375 -1.46625 -1.4765625 -0.9140625 -0.073125 -2.32171875 -0.14671875 -4.2946875 -0.14671875 -1.9725000000000001 0 -3.3806249999999998 0.07359375 -4.29421875 0.1471875 -0.79875 0.06375 -1.40625 0.67734375 -1.46671875 1.4765625 -0.07171875 0.9496874999999999 -0.1453125 2.43328125 -0.1453125 4.52859375 0 1.7643749999999998 0.05203125 3.0946875 0.1115625 4.03828125" stroke-width="1.5"></path><path id="Intersect_5" stroke="#ffffff" stroke-linecap="round" stroke-linejoin="round" d="M17.04375 20.94890625c0.05953125 -0.94359375 0.1115625 -2.27390625 0.1115625 -4.03828125 0 -2.0953125 -0.073125 -3.5789062499999997 -0.1453125 -4.5290625 -0.06 -0.79875 -0.66796875 -1.41234375 -1.46625 -1.4765625 -0.9140625 -0.073125 -2.32171875 -0.14671875 -4.2946875 -0.14671875 -1.9725000000000001 0 -3.3806249999999998 0.07359375 -4.29421875 0.1471875 -0.79875 0.06375 -1.40625 0.67734375 -1.46671875 1.4765625 -0.07171875 0.9496874999999999 -0.1453125 2.43328125 -0.1453125 4.52859375 0 1.7643749999999998 0.05203125 3.0946875 0.1115625 4.03828125" stroke-width="1.5"></path><path id="Vector 924" stroke="#ffffff" stroke-linecap="round" stroke-linejoin="round" d="M8.90625 14.53125h4.6875" stroke-width="1.5"></path><path id="Vector 925" stroke="#ffffff" stroke-linecap="round" stroke-linejoin="round" d="M8.90625 17.34375h2.8125" stroke-width="1.5"></path></g></svg>