<svg xmlns="http://www.w3.org/2000/svg" fill="none" viewBox="-0.75 -0.75 24 24" height="24" width="24"><g id="check-thick--check-form-validation-checkmark-success-add-addition-1-tick"><path id="Vector 7 (Stroke)" fill="#8fbffa00" fill-rule="evenodd" d="M20.482499999999998 4.28203125c0.459375 0.6262500000000001 0.3571875 1.46953125 -0.0703125 2.1178125 -4.00078125 6.0609375 -6.882187500000001 9.74296875 -8.47640625 11.6484375 -0.79078125 0.94453125 -2.16421875 1.01390625 -3.05859375 0.1659375A77.33765625 77.33765625 0 0 1 2.32265625 11.1534375c-0.5671875 -0.69515625 -0.684375 -1.67625 -0.13218749999999999 -2.38359375 0.48 -0.615 1.02796875 -1.1428125 1.5234375 -1.5609375 0.8217187499999999 -0.69375 2.0081249999999997 -0.53625 2.746875 0.245625 2.2795312500000002 2.415 3.6534375 4.1015625 3.6534375 4.1015625s2.2584375 -3.3 5.881875 -8.3765625c0.5610937500000001 -0.78609375 1.5609375 -1.1521875000000001 2.4056249999999997 -0.68390625 0.6782812500000001 0.37640625 1.46671875 0.94921875 2.0807812500000002 1.7859375Z" clip-rule="evenodd" stroke-width="1.5"></path><path id="Vector 7 (Stroke)_2" fill-rule="evenodd" stroke="#ffffff" stroke-linecap="round" stroke-linejoin="round" d="M20.482499999999998 4.28203125c0.459375 0.6262500000000001 0.3571875 1.46953125 -0.0703125 2.1178125 -4.00078125 6.0609375 -6.882187500000001 9.74296875 -8.47640625 11.6484375 -0.79078125 0.94453125 -2.16421875 1.01390625 -3.05859375 0.1659375A77.33765625 77.33765625 0 0 1 2.32265625 11.1534375c-0.5671875 -0.69515625 -0.684375 -1.67625 -0.13218749999999999 -2.38359375 0.48 -0.615 1.02796875 -1.1428125 1.5234375 -1.5609375 0.8217187499999999 -0.69375 2.0081249999999997 -0.53625 2.746875 0.245625 2.2795312500000002 2.415 3.6534375 4.1015625 3.6534375 4.1015625s2.2584375 -3.3 5.881875 -8.3765625c0.5610937500000001 -0.78609375 1.5609375 -1.1521875000000001 2.4056249999999997 -0.68390625 0.6782812500000001 0.37640625 1.46671875 0.94921875 2.0807812500000002 1.7859375Z" clip-rule="evenodd" stroke-width="1.5"></path></g></svg>