<svg xmlns="http://www.w3.org/2000/svg" fill="none" viewBox="-0.75 -0.75 24 24" height="24" width="24"><g id="pen-1--content-creation-edit-pen-write"><path id="Subtract" fill="#8fbffa00" d="M20.13046875 6.382968750000001c0.699375 1.07484375 0.346875 2.3953125 -0.5582812500000001 3.30375L9.684375 19.60921875a1.790625 1.790625 0 0 1 -1.1639062500000001 0.5306249999999999c-0.808125 0.046875 -2.35125 0.11578125 -4.70578125 0.13828125a0.45140625 0.45140625 0 0 1 -0.27421874999999996 -0.0871875 6.045 6.045 0 0 1 -0.6609375 -0.5704687500000001c-0.2296875 -0.2296875 -0.42 -0.459375 -0.5709375 -0.66140625a0.45140625 0.45140625 0 0 1 -0.0871875 -0.27421874999999996c0.0225 -2.35453125 0.09140625000000001 -3.8971875000000002 0.13828125 -4.70625a1.790625 1.790625 0 0 1 0.5306249999999999 -1.1634375000000001L12.8128125 2.92734375c0.90890625 -0.90515625 2.22890625 -1.25765625 3.30375 -0.5578124999999999 0.62390625 0.40546875 1.374375 0.98671875 2.2007812500000004 1.8131249999999999 0.8259375 0.8259375 1.4071874999999998 1.57640625 1.8131249999999999 2.2003125Z" stroke-width="1.5"></path><path id="Subtract_2" fill="#ffffff00" d="m20.416874999999997 4.86796875 -0.74203125 0.86578125a14.728125 14.728125 0 0 0 -1.3575 -1.5515625 14.7234375 14.7234375 0 0 0 -1.550625 -1.3565625000000001l0.8653125 -0.74203125c0.50953125 -0.436875 1.18546875 -0.6946875 1.7784375000000001 -0.3796875 0.24703125 0.13125 0.5203125000000001 0.32015625000000003 0.7926562500000001 0.5929687499999999a3.33234375 3.33234375 0 0 1 0.5934375000000001 0.793125c0.315 0.5929687499999999 0.0571875 1.2684374999999999 -0.3796875 1.77796875Z" stroke-width="1.5"></path><path id="Intersect" fill="#ffffff00" d="M9.11203125 19.9996875c-0.18609375 0.07968750000000001 -0.3853125 0.1284375 -0.59109375 0.14015624999999998 -0.80859375 0.046875 -2.35125 0.11578125 -4.70625 0.13828125a0.45140625 0.45140625 0 0 1 -0.27375 -0.0871875 6.045 6.045 0 0 1 -0.66140625 -0.5704687500000001c-0.2296875 -0.2296875 -0.41953125 -0.459375 -0.5704687500000001 -0.66140625a0.45140625 0.45140625 0 0 1 -0.08765625 -0.27421874999999996c0.0225 -2.35453125 0.09140625000000001 -3.89765625 0.13828125 -4.70625 0.012187499999999999 -0.20625 0.060937500000000006 -0.40546875 0.140625 -0.5915625a31.711875 31.711875 0 0 1 3.5212499999999998 3.01125c1.3125 1.3078125 2.36390625 2.61609375 3.09046875 3.60140625Z" stroke-width="1.5"></path><path id="Subtract_3" stroke="#ffffff" stroke-linecap="round" stroke-linejoin="round" d="M20.13046875 6.382968750000001c0.699375 1.07484375 0.346875 2.3953125 -0.5578124999999999 3.30375L9.684375 19.60921875a1.790625 1.790625 0 0 1 -1.1639062500000001 0.5306249999999999c-0.80859375 0.046875 -2.35125 0.11578125 -4.70625 0.13828125a0.45140625 0.45140625 0 0 1 -0.27375 -0.0871875 6.045 6.045 0 0 1 -0.66140625 -0.5704687500000001c-0.2296875 -0.2296875 -0.41953125 -0.459375 -0.5704687500000001 -0.66140625a0.45140625 0.45140625 0 0 1 -0.08765625 -0.27421874999999996c0.0225 -2.35453125 0.09140625000000001 -3.8971875000000002 0.13828125 -4.70625a1.790625 1.790625 0 0 1 0.5306249999999999 -1.1634375000000001l9.9234375 -9.8878125c0.9084375 -0.90515625 2.2284374999999996 -1.25765625 3.30375 -0.5578124999999999 0.6234375000000001 0.40546875 1.374375 0.98671875 2.2003125 1.8131249999999999 0.82640625 0.8259375 1.4071874999999998 1.57640625 1.8131249999999999 2.2003125Z" stroke-width="1.5"></path><path id="Subtract_4" stroke="#ffffff" stroke-linecap="round" stroke-linejoin="round" d="m16.76671875 2.82515625 0.8653125 -0.7415625c0.50953125 -0.436875 1.18546875 -0.6946875 1.7784375000000001 -0.3796875 0.24703125 0.13125 0.5203125000000001 0.32015625000000003 0.7926562500000001 0.5929687499999999a3.33375 3.33375 0 0 1 0.5934375000000001 0.793125c0.315 0.5929687499999999 0.0571875 1.2684374999999999 -0.3796875 1.77796875l-0.74203125 0.86578125" stroke-width="1.5"></path><path id="Rectangle 62" stroke="#ffffff" stroke-linecap="round" stroke-linejoin="round" d="M18.21375 11.04046875s-0.65765625 -1.453125 -2.979375 -3.7748437500000005c-2.32171875 -2.32125 -3.7748437500000005 -2.97890625 -3.7748437500000005 -2.97890625" stroke-width="1.5"></path><path id="Intersect_2" stroke="#ffffff" stroke-linecap="round" stroke-linejoin="round" d="M9.11203125 19.9996875c-0.7265625 -0.9853124999999999 -1.77796875 -2.2931250000000003 -3.09046875 -3.6009375a31.710937500000004 31.710937500000004 0 0 0 -3.5212499999999998 -3.01171875" stroke-width="1.5"></path><path id="Vector 1351" stroke="#ffffff" stroke-linecap="round" stroke-linejoin="round" d="M12.65625 3.046875c-0.65625 -0.39375 -1.45921875 -0.5671875 -2.0390625 -0.6431250000000001 -0.49265624999999996 -0.06468750000000001 -0.97078125 0.1378125 -1.3228125 0.489375L5.15625 7.03125" stroke-width="1.5"></path><path id="Vector 1352" stroke="#ffffff" stroke-linecap="round" stroke-linejoin="round" d="m2.8125 19.6875 -1.40625 1.40625" stroke-width="1.5"></path></g></svg>